<svg xmlns="http://www.w3.org/2000/svg" width="160" height="40" viewBox="0 0 160 40">
  <!-- Pleated flag bunting: two half-fans per tile. -->
  <defs>
    <path id="star" d="M0-6L1.59-2.18 5.71-1.85 2.57.83 3.53 4.85 0 2.7-3.53 4.85-2.57.83-5.71-1.85-1.59-2.18Z"/>
    <g id="fan">
      <path d="M-34 0A34 34 0 0 0 34 0Z" fill="#d62839"/>
      <path d="M-28 0A28 28 0 0 0 28 0Z" fill="#f4f4f4"/>
      <path d="M-22 0A22 22 0 0 0 22 0Z" fill="#d62839"/>
      <path d="M-16 0A16 16 0 0 0 16 0Z" fill="#f4f4f4"/>
      <path d="M-10 0A10 10 0 0 0 10 0Z" fill="#2f4fd6"/>
      <path d="M0 0L29.44 17M0 0L17 29.44M0 0V34M0 0L-17 29.44M0 0L-29.44 17" stroke="#000" stroke-opacity="0.16" stroke-width="0.8"/>
      <use href="#star" fill="#fff" transform="translate(0 4.6) scale(.55)"/>
    </g>
  </defs>
  <use href="#fan" transform="translate(40 1)"/>
  <use href="#fan" transform="translate(120 1)"/>
</svg>
