<svg xmlns="http://www.w3.org/2000/svg" width="12" height="12" viewBox="0 0 12 12" shape-rendering="crispEdges"><!-- Maple leaf --><path fill="#ff8c1a" d="M5 1h1v1h-1zM4 2h3v1h-3zM1 3h1v1h-1zM4 3h1v1h-1zM6 3h1v1h-1zM9 3h1v1h-1zM1 4h2v1h-2zM4 4h1v1h-1zM6 4h1v1h-1zM8 4h2v1h-2zM2 5h3v1h-3zM6 5h3v1h-3zM0 6h5v1h-5zM6 6h5v1h-5zM1 7h4v1h-4zM6 7h4v1h-4zM2 8h3v1h-3zM6 8h3v1h-3zM3 9h2v1h-2zM6 9h2v1h-2z"/><path fill="#c45a00" d="M5 3h1v1h-1zM5 4h1v1h-1zM5 5h1v1h-1zM5 6h1v1h-1zM5 7h1v1h-1zM5 8h1v1h-1z"/><path fill="#6b3a1f" d="M5 10h1v1h-1zM5 11h1v1h-1z"/></svg>
